<svg xmlns="http://www.w3.org/2000/svg" width="64.204" height="30.614" viewBox="0 0 64.204 30.614">
  <g id="Group_20" data-name="Group 20" transform="translate(404 207.039)">
    <path id="Path_7" data-name="Path 7" d="M197.7,308.544a.155.155,0,0,0-.219,0l-11.424,11.433h23.076Z" transform="translate(-569.494 -496.403)" fill="#fff"/>
    <path id="Path_9" data-name="Path 9" d="M117.352,224.18a2.877,2.877,0,0,0-2.048-.848h0a2.876,2.876,0,0,0-2.048.849l-20.59,20.608h7.07l12.538-12.549a4.262,4.262,0,0,1,3.034-1.258h0a4.262,4.262,0,0,1,3.034,1.257l12.55,12.55h7.068Z" transform="translate(-487.211 -421.214)" fill="#fff"/>
    <path id="Path_8" data-name="Path 8" d="M63.653,161.337,39.191,136.875a9.974,9.974,0,0,0-7.1-2.941h0a9.975,9.975,0,0,0-7.1,2.944L.55,161.337a1.881,1.881,0,0,0,1.331,3.21H6.3l21.276-21.295a6.339,6.339,0,0,1,4.512-1.871h0a6.338,6.338,0,0,1,4.512,1.869l21.3,21.3h4.423a1.881,1.881,0,0,0,1.33-3.211Z" transform="translate(-404 -340.973)" fill="#fff"/>
  </g>
</svg>
